<?xml version="1.0" encoding="UTF-8" standalone="no"?>
<svg xmlns="http://www.w3.org/2000/svg" xmlns:xlink="http://www.w3.org/1999/xlink" contentScriptType="application/ecmascript" contentStyleType="text/css" height="346px" preserveAspectRatio="none" style="width:569px;height:346px;" version="1.1" viewBox="0 0 569 346" width="569px" zoomAndPan="magnify"><defs><filter height="300%" id="fj68yul855evj" width="300%" x="-1" y="-1"><feGaussianBlur result="blurOut" stdDeviation="2.0"/><feColorMatrix in="blurOut" result="blurOut2" type="matrix" values="0 0 0 0 0 0 0 0 0 0 0 0 0 0 0 0 0 0 .4 0"/><feOffset dx="4.0" dy="4.0" in="blurOut2" result="blurOut3"/><feBlend in="SourceGraphic" in2="blurOut3" mode="normal"/></filter></defs><g><!--MD5=[b4fa10df80476353258f72a232547d63]
class AbstractList--><rect fill="#FEFECE" filter="url(#fj68yul855evj)" height="48" id="AbstractList" style="stroke: #A80036; stroke-width: 1.5;" width="105" x="186" y="154"/><ellipse cx="201" cy="170" fill="#A9DCDF" rx="11" ry="11" style="stroke: #A80036; stroke-width: 1.0;"/><path d="M202.5781,171.8125 L198.5313,171.8125 L198.1406,172.7969 L198.5313,172.7969 C198.9844,172.7969 199.125,172.8281 199.2969,172.9531 C199.5156,173.125 199.6406,173.375 199.6406,173.6563 C199.6406,173.9375 199.5,174.2344 199.2344,174.375 C199.1094,174.4688 198.8906,174.5 198.5313,174.5 L196.2656,174.5 C195.5156,174.5 195.1406,174.2188 195.1406,173.6563 C195.1406,173.3594 195.2969,173.0781 195.5469,172.9219 C195.7031,172.8125 195.8594,172.7969 196.2813,172.7969 L198.9219,166.2813 L197.8438,166.2813 C197.4063,166.2813 197.2344,166.25 197.0625,166.1406 C196.8438,165.9688 196.7031,165.7188 196.7031,165.4375 C196.7031,165.1563 196.8594,164.875 197.1094,164.7031 C197.2656,164.6094 197.3906,164.5938 197.8438,164.5938 L201.5156,164.5938 L204.9063,172.7969 C205.375,172.7969 205.5313,172.8281 205.7031,172.9688 C205.9219,173.125 206.0625,173.375 206.0625,173.6563 C206.0625,173.9375 205.9063,174.2344 205.6563,174.375 C205.5156,174.4688 205.2969,174.5 204.9375,174.5 L202.5781,174.5 C202.1563,174.5 201.9531,174.4531 201.8125,174.3281 C201.5938,174.1719 201.4531,173.9219 201.4531,173.6563 C201.4531,173.3594 201.6094,173.0781 201.8594,172.9219 C202.0156,172.8125 202.125,172.7969 202.5781,172.7969 L202.9688,172.7969 Z M201.875,170.1094 L200.5469,166.8438 L199.2031,170.1094 Z "/><text fill="#000000" font-family="sans-serif" font-size="12" font-style="italic" lengthAdjust="spacingAndGlyphs" textLength="73" x="215" y="174.1543">AbstractList</text><line style="stroke: #A80036; stroke-width: 1.5;" x1="187" x2="290" y1="186" y2="186"/><line style="stroke: #A80036; stroke-width: 1.5;" x1="187" x2="290" y1="194" y2="194"/><!--MD5=[8e34b16d8d8f96f4a11290cd523ed859]
class AbstractCollection--><rect fill="#FEFECE" filter="url(#fj68yul855evj)" height="48" id="AbstractCollection" style="stroke: #A80036; stroke-width: 1.5;" width="145" x="6" y="154"/><ellipse cx="21" cy="170" fill="#A9DCDF" rx="11" ry="11" style="stroke: #A80036; stroke-width: 1.0;"/><path d="M22.5781,171.8125 L18.5313,171.8125 L18.1406,172.7969 L18.5313,172.7969 C18.9844,172.7969 19.125,172.8281 19.2969,172.9531 C19.5156,173.125 19.6406,173.375 19.6406,173.6563 C19.6406,173.9375 19.5,174.2344 19.2344,174.375 C19.1094,174.4688 18.8906,174.5 18.5313,174.5 L16.2656,174.5 C15.5156,174.5 15.1406,174.2188 15.1406,173.6563 C15.1406,173.3594 15.2969,173.0781 15.5469,172.9219 C15.7031,172.8125 15.8594,172.7969 16.2813,172.7969 L18.9219,166.2813 L17.8438,166.2813 C17.4063,166.2813 17.2344,166.25 17.0625,166.1406 C16.8438,165.9688 16.7031,165.7188 16.7031,165.4375 C16.7031,165.1563 16.8594,164.875 17.1094,164.7031 C17.2656,164.6094 17.3906,164.5938 17.8438,164.5938 L21.5156,164.5938 L24.9063,172.7969 C25.375,172.7969 25.5313,172.8281 25.7031,172.9688 C25.9219,173.125 26.0625,173.375 26.0625,173.6563 C26.0625,173.9375 25.9063,174.2344 25.6563,174.375 C25.5156,174.4688 25.2969,174.5 24.9375,174.5 L22.5781,174.5 C22.1563,174.5 21.9531,174.4531 21.8125,174.3281 C21.5938,174.1719 21.4531,173.9219 21.4531,173.6563 C21.4531,173.3594 21.6094,173.0781 21.8594,172.9219 C22.0156,172.8125 22.125,172.7969 22.5781,172.7969 L22.9688,172.7969 Z M21.875,170.1094 L20.5469,166.8438 L19.2031,170.1094 Z "/><text fill="#000000" font-family="sans-serif" font-size="12" font-style="italic" lengthAdjust="spacingAndGlyphs" textLength="113" x="35" y="174.1543">AbstractCollection</text><line style="stroke: #A80036; stroke-width: 1.5;" x1="7" x2="150" y1="186" y2="186"/><line style="stroke: #A80036; stroke-width: 1.5;" x1="7" x2="150" y1="194" y2="194"/><!--MD5=[3d4177ac58b4411586d067f34e84928f]
class List--><rect fill="#FEFECE" filter="url(#fj68yul855evj)" height="48" id="List" style="stroke: #A80036; stroke-width: 1.5;" width="53" x="199" y="27"/><ellipse cx="214" cy="43" fill="#B4A7E5" rx="11" ry="11" style="stroke: #A80036; stroke-width: 1.0;"/><path d="M214.9531,39.7813 L214.9531,46.2969 L216.6719,46.2969 C217.125,46.2969 217.2656,46.3281 217.4375,46.4531 C217.6719,46.625 217.7813,46.875 217.7813,47.1563 C217.7813,47.7188 217.4219,48 216.6719,48 L211.5313,48 C211.125,48 210.9219,47.9531 210.7656,47.8281 C210.5469,47.6719 210.4063,47.4063 210.4063,47.1563 C210.4063,46.8594 210.5625,46.5781 210.8125,46.4219 C210.9688,46.3125 211.0938,46.2969 211.5313,46.2969 L213.25,46.2969 L213.25,39.7813 L211.5313,39.7813 C211.1094,39.7813 210.9219,39.75 210.7656,39.6406 C210.5469,39.4688 210.4063,39.2188 210.4063,38.9375 C210.4063,38.6563 210.5625,38.3594 210.8125,38.2031 C210.9688,38.1094 211.0938,38.0938 211.5313,38.0938 L216.6719,38.0938 C217.125,38.0938 217.2656,38.125 217.4375,38.2344 C217.6719,38.4063 217.7813,38.6719 217.7813,38.9375 C217.7813,39.2344 217.6406,39.5156 217.375,39.6719 C217.25,39.75 217.0625,39.7813 216.6719,39.7813 Z "/><text fill="#000000" font-family="sans-serif" font-size="12" font-style="italic" lengthAdjust="spacingAndGlyphs" textLength="21" x="228" y="47.1543">List</text><line style="stroke: #A80036; stroke-width: 1.5;" x1="200" x2="251" y1="59" y2="59"/><line style="stroke: #A80036; stroke-width: 1.5;" x1="200" x2="251" y1="67" y2="67"/><!--MD5=[c160724f8e3bb89ca8141a12554ac2e3]
class Collection--><rect fill="#FEFECE" filter="url(#fj68yul855evj)" height="48" id="Collection" style="stroke: #A80036; stroke-width: 1.5;" width="93" x="45" y="27"/><ellipse cx="60" cy="43" fill="#B4A7E5" rx="11" ry="11" style="stroke: #A80036; stroke-width: 1.0;"/><path d="M60.9531,39.7813 L60.9531,46.2969 L62.6719,46.2969 C63.125,46.2969 63.2656,46.3281 63.4375,46.4531 C63.6719,46.625 63.7813,46.875 63.7813,47.1563 C63.7813,47.7188 63.4219,48 62.6719,48 L57.5313,48 C57.125,48 56.9219,47.9531 56.7656,47.8281 C56.5469,47.6719 56.4063,47.4063 56.4063,47.1563 C56.4063,46.8594 56.5625,46.5781 56.8125,46.4219 C56.9688,46.3125 57.0938,46.2969 57.5313,46.2969 L59.25,46.2969 L59.25,39.7813 L57.5313,39.7813 C57.1094,39.7813 56.9219,39.75 56.7656,39.6406 C56.5469,39.4688 56.4063,39.2188 56.4063,38.9375 C56.4063,38.6563 56.5625,38.3594 56.8125,38.2031 C56.9688,38.1094 57.0938,38.0938 57.5313,38.0938 L62.6719,38.0938 C63.125,38.0938 63.2656,38.125 63.4375,38.2344 C63.6719,38.4063 63.7813,38.6719 63.7813,38.9375 C63.7813,39.2344 63.6406,39.5156 63.375,39.6719 C63.25,39.75 63.0625,39.7813 62.6719,39.7813 Z "/><text fill="#000000" font-family="sans-serif" font-size="12" font-style="italic" lengthAdjust="spacingAndGlyphs" textLength="61" x="74" y="47.1543">Collection</text><line style="stroke: #A80036; stroke-width: 1.5;" x1="46" x2="137" y1="59" y2="59"/><line style="stroke: #A80036; stroke-width: 1.5;" x1="46" x2="137" y1="67" y2="67"/><!--MD5=[ab8871ed637f40707b866ba6597734bc]
class ArrayList--><rect fill="#FEFECE" filter="url(#fj68yul855evj)" height="73.6094" id="ArrayList" style="stroke: #A80036; stroke-width: 1.5;" width="132" x="172.5" y="262"/><ellipse cx="208.65" cy="278" fill="#ADD1B2" rx="11" ry="11" style="stroke: #A80036; stroke-width: 1.0;"/><path d="M210.9938,273.6719 L211.1656,273.75 C211.3844,273.4375 211.5875,273.3438 211.8844,273.3438 C212.1813,273.3438 212.4625,273.4844 212.6188,273.75 C212.7125,273.9063 212.7281,274.0313 212.7281,274.4688 L212.7281,275.8906 C212.7281,276.3125 212.6969,276.5 212.5875,276.6563 C212.4156,276.875 212.15,277.0156 211.8844,277.0156 C211.6656,277.0156 211.4313,276.9063 211.2906,276.7656 C211.15,276.6406 211.1188,276.5156 211.0563,276.1094 C210.9625,275.7031 210.7906,275.4844 210.3063,275.2031 C209.8375,274.9531 209.2281,274.7969 208.65,274.7969 C206.9156,274.7969 205.6656,276.1094 205.6656,277.8906 L205.6656,278.9844 C205.6656,280.6875 206.9625,281.7813 209.0094,281.7813 C209.775,281.7813 210.4625,281.6563 210.8844,281.3906 C211.0719,281.2969 211.0719,281.2969 211.525,280.8125 C211.7125,280.625 211.9156,280.5469 212.1344,280.5469 C212.6031,280.5469 212.9938,280.9375 212.9938,281.3906 C212.9938,281.7813 212.6656,282.2344 212.0875,282.6406 C211.3375,283.1875 210.1813,283.4844 208.9625,283.4844 C206.0719,283.4844 203.9625,281.5938 203.9625,279.0156 L203.9625,277.8906 C203.9625,275.1719 205.9625,273.0938 208.5875,273.0938 C209.4625,273.0938 210.0563,273.2344 210.9938,273.6719 Z "/><text fill="#000000" font-family="sans-serif" font-size="12" lengthAdjust="spacingAndGlyphs" textLength="53" x="227.35" y="282.1543">ArrayList</text><line style="stroke: #A80036; stroke-width: 1.5;" x1="173.5" x2="303.5" y1="294" y2="294"/><text fill="#000000" font-family="sans-serif" font-size="11" lengthAdjust="spacingAndGlyphs" textLength="120" x="178.5" y="308.2104">Object[] elementData</text><line style="stroke: #A80036; stroke-width: 1.5;" x1="173.5" x2="303.5" y1="314.8047" y2="314.8047"/><text fill="#000000" font-family="sans-serif" font-size="11" lengthAdjust="spacingAndGlyphs" textLength="30" x="178.5" y="329.0151">size()</text><!--MD5=[15b68e006199004da79ea2a4d117d8e9]
class TimeUnit--><rect fill="#FEFECE" filter="url(#fj68yul855evj)" height="86.4141" id="TimeUnit" style="stroke: #A80036; stroke-width: 1.5;" width="86" x="287.5" y="8"/><ellipse cx="302.5" cy="24" fill="#EB937F" rx="11" ry="11" style="stroke: #A80036; stroke-width: 1.0;"/><path d="M300.7969,24.875 L300.7969,27.2969 L305.1563,27.2969 L305.1563,26.4219 C305.1563,25.9375 305.1875,25.7969 305.2969,25.6406 C305.4688,25.3906 305.7344,25.2813 306,25.2813 C306.2813,25.2813 306.5625,25.4375 306.7344,25.6875 C306.8125,25.8438 306.8438,25.9844 306.8438,26.4219 L306.8438,29 L298.8438,29 C298.4531,29 298.2188,28.9531 298.0781,28.8281 C297.8594,28.6719 297.7188,28.4219 297.7188,28.1563 C297.7188,27.8594 297.875,27.5938 298.125,27.4219 C298.2813,27.3125 298.4375,27.2969 298.8438,27.2969 L299.0938,27.2969 L299.0938,20.7813 L298.8438,20.7813 C298.4219,20.7813 298.2344,20.75 298.0781,20.6406 C297.8594,20.4688 297.7188,20.2188 297.7188,19.9375 C297.7188,19.6563 297.875,19.3594 298.125,19.2031 C298.2813,19.1094 298.4063,19.0938 298.8438,19.0938 L306.4688,19.0938 L306.4688,21.6406 C306.4688,22.1094 306.4375,22.25 306.3281,22.4219 C306.1563,22.6406 305.8906,22.7813 305.625,22.7813 C305.3438,22.7813 305.0625,22.625 304.8906,22.375 C304.8125,22.2188 304.7813,22.0469 304.7813,21.6406 L304.7813,20.7813 L300.7969,20.7813 L300.7969,23.1875 L302.25,23.1875 L302.25,23.0625 C302.25,22.6094 302.2813,22.4531 302.3906,22.2813 C302.5625,22.0625 302.8281,21.9219 303.0781,21.9219 C303.5313,21.9219 303.8438,22.2344 303.9063,22.7031 C303.9219,22.8594 303.9219,22.9063 303.9219,23.0625 L303.9219,24.9844 C303.9219,25.4375 303.8906,25.5938 303.7656,25.75 C303.6094,25.9688 303.3438,26.1094 303.0938,26.1094 C302.7969,26.1094 302.5156,25.9531 302.3594,25.7031 C302.2813,25.5469 302.25,25.3906 302.25,24.9844 L302.25,24.875 Z "/><text fill="#000000" font-family="sans-serif" font-size="12" lengthAdjust="spacingAndGlyphs" textLength="54" x="316.5" y="28.1543">TimeUnit</text><line style="stroke: #A80036; stroke-width: 1.5;" x1="288.5" x2="372.5" y1="40" y2="40"/><text fill="#000000" font-family="sans-serif" font-size="11" lengthAdjust="spacingAndGlyphs" textLength="30" x="293.5" y="54.2104">DAYS</text><text fill="#000000" font-family="sans-serif" font-size="11" lengthAdjust="spacingAndGlyphs" textLength="40" x="293.5" y="67.0151">HOURS</text><text fill="#000000" font-family="sans-serif" font-size="11" lengthAdjust="spacingAndGlyphs" textLength="50" x="293.5" y="79.8198">MINUTES</text><line style="stroke: #A80036; stroke-width: 1.5;" x1="288.5" x2="372.5" y1="86.4141" y2="86.4141"/><!--MD5=[0c8287f799745f7b534bf75518604c1e]
class SuppressWarnings--><rect fill="#FEFECE" filter="url(#fj68yul855evj)" height="48" id="SuppressWarnings" style="stroke: #A80036; stroke-width: 1.5;" width="149" x="409" y="27"/><ellipse cx="424" cy="43" fill="#E3664A" rx="11" ry="11" style="stroke: #A80036; stroke-width: 1.0;"/><path d="M425.9219,40.25 L425.9219,39.7031 C425.9219,38.5781 425.1875,37.7969 424.1406,37.7969 C422.7031,37.7969 421.6406,39.4375 421.6406,41.6094 L421.6406,44.2656 C421.6406,45.5625 421.9219,46.6094 422.5,47.4063 C422.9063,48 423.4375,48.2656 424.1875,48.2656 C424.9375,48.2656 425.6094,48.0469 425.9375,47.7188 C426.1719,47.4688 426.2656,47.4219 426.4688,47.4219 C426.8438,47.4219 427.1406,47.7344 427.1406,48.125 C427.1406,48.9219 425.75,49.5781 424.1406,49.5781 C422.7344,49.5781 421.8125,49.0156 421.0938,47.7656 C420.5781,46.8438 420.2969,45.625 420.2969,44.375 L420.2969,41.5156 C420.2969,38.5781 421.9063,36.4531 424.1094,36.4531 C425.9531,36.4531 427.2656,37.8125 427.2656,39.7031 L427.2656,44.4844 C427.5313,44.6094 427.6563,44.7969 427.6563,45.0781 C427.6563,45.5625 427.3438,45.7813 426.7188,45.7813 L425.9219,45.7813 L425.9219,45.7188 C425.6563,45.7656 425.5156,45.7813 425.3594,45.7813 C423.9063,45.7813 422.7031,44.5625 422.7031,43.1563 C422.7031,41.5781 424.0156,40.3906 425.9219,40.25 Z M425.9219,44.3594 L425.9219,41.625 C424.7969,41.7344 424.0469,42.3438 424.0469,43.1719 C424.0469,43.875 424.6563,44.4063 425.4844,44.4063 C425.5938,44.4063 425.6875,44.4063 425.9219,44.3594 Z "/><text fill="#000000" font-family="sans-serif" font-size="12" lengthAdjust="spacingAndGlyphs" textLength="117" x="438" y="47.1543">SuppressWarnings</text><line style="stroke: #A80036; stroke-width: 1.5;" x1="410" x2="557" y1="59" y2="59"/><line style="stroke: #A80036; stroke-width: 1.5;" x1="410" x2="557" y1="67" y2="67"/><!--MD5=[00308d07b6a5721fb0cf5861877e6652]
reverse link List to AbstractList--><path d="M230.014,95.406 C232.06,115.075 234.396,137.536 236.098,153.906 " fill="none" id="List&lt;-AbstractList" style="stroke: #A80036; stroke-width: 1.0;"/><polygon fill="none" points="223.021,95.835,227.915,75.219,236.946,94.387,223.021,95.835" style="stroke: #A80036; stroke-width: 1.0;"/><!--MD5=[1822909749df1453bdd84de7a60a3406]
reverse link Collection to AbstractCollection--><path d="M86.9858,95.406 C84.9402,115.075 82.6043,137.536 80.9018,153.906 " fill="none" id="Collection&lt;-AbstractCollection" style="stroke: #A80036; stroke-width: 1.0;"/><polygon fill="none" points="80.0539,94.387,89.0853,75.219,93.9788,95.835,80.0539,94.387" style="stroke: #A80036; stroke-width: 1.0;"/><!--MD5=[0159284274f96a472eb2618ad803aaca]
reverse link Collection to List--><path d="M158.504,51 C171.958,51 185.412,51 198.866,51 " fill="none" id="Collection&lt;-List" style="stroke: #A80036; stroke-width: 1.0;"/><polygon fill="none" points="158.086,58,138.086,51,158.086,44,158.086,58" style="stroke: #A80036; stroke-width: 1.0;"/><!--MD5=[7a3a52e8f65ef1a8d8d29530ea5cd870]
reverse link AbstractCollection to AbstractList--><path d="M171.468,178 C176.215,178 180.963,178 185.711,178 " fill="none" id="AbstractCollection&lt;-AbstractList" style="stroke: #A80036; stroke-width: 1.0;"/><polygon fill="none" points="171.313,185,151.312,178,171.312,171,171.313,185" style="stroke: #A80036; stroke-width: 1.0;"/><!--MD5=[40e4bb1af59cca28d4643aaff05088cc]
reverse link AbstractList to ArrayList--><path d="M238.5,222.433 C238.5,235.332 238.5,249.3199 238.5,261.714 " fill="none" id="AbstractList&lt;-ArrayList" style="stroke: #A80036; stroke-width: 1.0;"/><polygon fill="none" points="231.5,222.227,238.5,202.227,245.5,222.227,231.5,222.227" style="stroke: #A80036; stroke-width: 1.0;"/><!--MD5=[d9a4971f094178f2ab72162080dac792]
@startuml
abstract class AbstractList
abstract AbstractCollection
interface List
interface Collection

List <|- - AbstractList
Collection <|- - AbstractCollection

Collection <|- List
AbstractCollection <|- AbstractList
AbstractList <|- - ArrayList

class ArrayList {
  Object[] elementData
  size()
}

enum TimeUnit {
  DAYS
  HOURS
  MINUTES
}

annotation SuppressWarnings
@enduml

PlantUML version 1.2019.12(Sun Nov 03 10:24:54 UTC 2019)
(GPL source distribution)
Java Runtime: Java(TM) SE Runtime Environment
JVM: Java HotSpot(TM) 64-Bit Server VM
Java Version: 1.7.0_25-b15
Operating System: Linux
Default Encoding: UTF-8
Language: en
Country: US
--></g></svg>